<?xml version="1.0" encoding="utf-8"?>
<!-- Generator: Adobe Illustrator 17.0.0, SVG Export Plug-In . SVG Version: 6.00 Build 0)  -->
<!DOCTYPE svg PUBLIC "-//W3C//DTD SVG 1.1//EN" "http://www.w3.org/Graphics/SVG/1.1/DTD/svg11.dtd">
<svg version="1.1" id="Layer_1" xmlns="http://www.w3.org/2000/svg" xmlns:xlink="http://www.w3.org/1999/xlink" x="0px" y="0px"
	 width="178.947px" height="176px" viewBox="0 0 178.947 176" style="enable-background:new 0 0 178.947 176;" xml:space="preserve"
	>
<style type="text/css">
	.st0{fill:#432918;}
</style>
<g>
	<path d="M20.149,50.778c-0.726,0.731-1.569,1.043-2.53,0.937c-0.962-0.105-1.888-0.6-2.777-1.483
		c-1.07-1.062-1.774-1.994-2.112-2.797l0.606-0.611c0.365,0.894,1.038,1.826,2.017,2.797c0.719,0.713,1.452,1.113,2.201,1.202
		c0.748,0.089,1.388-0.134,1.918-0.669c0.329-0.332,0.532-0.676,0.607-1.032c0.076-0.356,0.046-0.781-0.091-1.273
		c-0.138-0.493-0.408-1.146-0.813-1.96c-0.589-1.194-0.878-2.141-0.864-2.836c0.013-0.696,0.315-1.342,0.905-1.937
		c0.65-0.655,1.437-0.935,2.359-0.839c0.923,0.095,1.788,0.543,2.595,1.344c0.823,0.816,1.442,1.739,1.855,2.767l-0.744,0.308
		c-0.427-1.025-0.971-1.866-1.634-2.524c-0.646-0.642-1.311-1.003-1.991-1.084c-0.681-0.081-1.277,0.136-1.788,0.651
		c-0.321,0.324-0.525,0.647-0.613,0.972c-0.089,0.324-0.081,0.703,0.022,1.134c0.103,0.431,0.365,1.085,0.786,1.963
		c0.449,0.913,0.735,1.651,0.859,2.214c0.123,0.562,0.125,1.063,0.002,1.5C20.803,49.96,20.545,50.379,20.149,50.778z"/>
	<path d="M26.586,48.724l-4.185,4.218c-0.65,0.655-0.985,1.268-1.005,1.839c-0.02,0.571,0.261,1.144,0.839,1.718
		c0.775,0.769,1.54,1.139,2.294,1.11c0.753-0.029,1.567-0.485,2.443-1.367l3.566-3.595l0.587,0.583l-6.461,6.512l-0.503-0.5
		l0.784-1.005L24.91,58.2c-1.098,0.259-2.188-0.148-3.27-1.222c-1.481-1.47-1.436-2.998,0.138-4.583l4.22-4.253L26.586,48.724z"/>
	<path d="M29.512,64.788c-1.003-0.995-1.36-2.095-1.075-3.302l-0.042-0.042l-0.481,0.521c-0.276,0.311-0.591,0.643-0.939,0.994
		l-2.46,2.48l-0.593-0.588l9.386-9.459l0.503,0.5l-0.808,1.042l0.036,0.036c1.145-0.259,2.207,0.099,3.189,1.073
		c0.879,0.873,1.263,1.825,1.152,2.86c-0.111,1.035-0.715,2.103-1.808,3.206c-1.063,1.07-2.128,1.659-3.197,1.767
		C31.305,65.983,30.351,65.621,29.512,64.788z M30.024,64.249c0.666,0.662,1.428,0.926,2.285,0.794
		c0.856-0.132,1.727-0.645,2.61-1.535c1.897-1.913,2.156-3.555,0.774-4.926c-0.759-0.752-1.522-1.097-2.293-1.032
		c-0.769,0.065-1.622,0.568-2.557,1.511l-0.19,0.191c-1.011,1.019-1.561,1.916-1.651,2.689
		C28.913,62.715,29.253,63.484,30.024,64.249z"/>
	<path d="M36.815,72.034c-1.003-0.995-1.361-2.095-1.075-3.302l-0.042-0.042l-0.481,0.521c-0.277,0.311-0.591,0.643-0.939,0.994
		l-2.46,2.48l-0.593-0.588l9.385-9.459l0.504,0.5l-0.808,1.042l0.036,0.036c1.144-0.259,2.207,0.099,3.189,1.073
		c0.879,0.872,1.263,1.825,1.151,2.86c-0.111,1.035-0.714,2.103-1.807,3.206c-1.063,1.07-2.128,1.659-3.198,1.767
		C38.608,73.229,37.654,72.866,36.815,72.034z M37.327,71.495c0.666,0.662,1.428,0.926,2.285,0.794
		c0.856-0.132,1.727-0.645,2.61-1.535c1.897-1.913,2.156-3.555,0.774-4.926c-0.759-0.752-1.523-1.097-2.293-1.032
		c-0.769,0.065-1.622,0.568-2.557,1.511l-0.19,0.192c-1.011,1.019-1.561,1.916-1.651,2.689
		C36.215,69.961,36.555,70.73,37.327,71.495z"/>
	<path d="M50.075,78.474c-1.054,1.063-2.134,1.637-3.241,1.723c-1.107,0.086-2.115-0.321-3.022-1.221
		c-0.571-0.567-0.937-1.203-1.099-1.911c-0.162-0.707-0.103-1.434,0.177-2.179c0.278-0.745,0.753-1.456,1.423-2.13
		c1.055-1.063,2.134-1.634,3.237-1.716c1.104-0.082,2.104,0.323,3.003,1.214c0.895,0.888,1.299,1.884,1.211,2.991
		C51.676,76.352,51.113,77.428,50.075,78.474z M44.935,73.375c-0.888,0.895-1.383,1.788-1.486,2.679
		c-0.104,0.892,0.203,1.694,0.922,2.408s1.523,1.015,2.415,0.904c0.89-0.111,1.779-0.614,2.667-1.508
		c0.892-0.898,1.384-1.793,1.478-2.683c0.095-0.889-0.218-1.69-0.937-2.404s-1.518-1.017-2.396-0.91
		C46.718,71.967,45.831,72.472,44.935,73.375z"/>
	<path d="M57.789,79.435c0.276,0.274,0.544,0.595,0.804,0.964l-0.678,0.456c-0.205-0.337-0.453-0.651-0.744-0.94
		c-0.556-0.551-1.244-0.767-2.067-0.648s-1.592,0.537-2.305,1.256l-3.566,3.594l-0.592-0.588l6.461-6.512l0.503,0.5l-1.105,1.233
		l0.042,0.042c0.743-0.214,1.361-0.268,1.857-0.16S57.358,79.007,57.789,79.435z"/>
	<path d="M55.538,89.564c0.375,0.372,0.734,0.666,1.077,0.879l-0.476,0.479c-0.383-0.189-0.762-0.47-1.137-0.842
		c-0.575-0.571-0.847-1.146-0.815-1.725c0.031-0.579,0.374-1.198,1.027-1.857l4.173-4.206l-0.964-0.956l0.345-0.348L60,81.675
		l1.762-1.176l0.306,0.303l-1.563,1.575l1.911,1.896l-0.511,0.515l-1.911-1.896l-4.09,4.122c-0.495,0.5-0.773,0.956-0.836,1.37
		C55.006,88.798,55.162,89.191,55.538,89.564z"/>
	<path d="M71.938,97.788c-1.459,1.47-2.946,2.198-4.465,2.187c-1.518-0.012-3.022-0.759-4.517-2.241l-2.097-2.08l8.69-8.758
		l2.365,2.348c1.398,1.387,2.099,2.807,2.103,4.261C74.022,94.958,73.329,96.386,71.938,97.788z M71.249,97.152
		c1.244-1.254,1.861-2.514,1.854-3.779c-0.01-1.265-0.631-2.509-1.865-3.733l-1.611-1.599l-7.62,7.68l1.449,1.438
		C66.071,99.754,68.67,99.752,71.249,97.152z"/>
	<path d="M71.883,106.829c-0.946-0.939-1.395-1.962-1.346-3.071c0.05-1.108,0.595-2.188,1.637-3.238
		c1.03-1.039,2.111-1.616,3.243-1.734c1.131-0.117,2.131,0.254,2.997,1.114c0.767,0.761,1.106,1.629,1.019,2.604
		c-0.087,0.975-0.587,1.921-1.499,2.84l-0.476,0.479l-4.69-4.654c-0.879,0.903-1.348,1.793-1.406,2.67
		c-0.058,0.877,0.294,1.695,1.057,2.451c0.371,0.369,0.724,0.667,1.057,0.894c0.333,0.228,0.801,0.47,1.402,0.726l-0.535,0.539
		c-0.525-0.204-0.974-0.433-1.342-0.684C72.632,107.513,72.259,107.202,71.883,106.829z M77.891,100.426
		c-0.627-0.623-1.335-0.915-2.125-0.878c-0.789,0.037-1.603,0.413-2.438,1.128l4.025,3.994c0.749-0.754,1.171-1.507,1.265-2.258
		C78.713,101.663,78.47,101,77.891,100.426z"/>
	<path d="M77.532,112.195l3.945-9.008l0.61,0.606l-2.709,6.098c-0.339,0.789-0.663,1.451-0.971,1.985l0.035,0.035
		c0.704-0.38,1.366-0.713,1.989-0.999l6.065-2.744l0.61,0.606l-8.977,4.016L77.532,112.195z"/>
	<path d="M84.248,119.097c-0.946-0.939-1.395-1.962-1.345-3.071c0.049-1.108,0.595-2.188,1.637-3.238
		c1.03-1.039,2.111-1.616,3.242-1.734c1.132-0.117,2.131,0.254,2.997,1.114c0.767,0.761,1.107,1.629,1.019,2.604
		c-0.087,0.975-0.587,1.921-1.499,2.84l-0.476,0.479l-4.69-4.654c-0.879,0.903-1.348,1.793-1.406,2.67
		c-0.058,0.877,0.294,1.695,1.057,2.451c0.372,0.369,0.725,0.667,1.057,0.894c0.333,0.228,0.802,0.47,1.403,0.726l-0.535,0.539
		c-0.526-0.205-0.975-0.433-1.343-0.684C84.996,119.781,84.624,119.47,84.248,119.097z M90.257,112.694
		c-0.628-0.623-1.336-0.915-2.125-0.878c-0.79,0.037-1.603,0.413-2.439,1.128l4.026,3.994c0.748-0.754,1.171-1.507,1.265-2.258
		C91.078,113.931,90.835,113.269,90.257,112.694z"/>
	<path d="M89.064,123.637l-0.593-0.588l9.248-9.322l0.593,0.588L89.064,123.637z"/>
	<path d="M99.869,127.879c-1.055,1.063-2.135,1.637-3.241,1.723c-1.108,0.086-2.115-0.321-3.022-1.221
		c-0.571-0.567-0.937-1.203-1.099-1.911c-0.162-0.707-0.103-1.434,0.177-2.178c0.278-0.746,0.753-1.456,1.423-2.13
		c1.054-1.063,2.133-1.634,3.237-1.716c1.103-0.082,2.104,0.323,3.002,1.214c0.896,0.888,1.299,1.885,1.212,2.991
		C101.47,125.756,100.907,126.833,99.869,127.879z M94.729,122.779c-0.888,0.895-1.383,1.788-1.487,2.679
		c-0.104,0.892,0.204,1.694,0.923,2.407c0.719,0.713,1.523,1.014,2.415,0.904c0.89-0.111,1.779-0.614,2.667-1.508
		c0.892-0.898,1.384-1.792,1.478-2.683c0.095-0.889-0.218-1.69-0.937-2.403c-0.719-0.713-1.519-1.017-2.396-0.91
		C96.512,121.372,95.625,121.877,94.729,122.779z"/>
	<path d="M101.1,135.817c-1.003-0.995-1.361-2.095-1.076-3.302l-0.041-0.042l-0.481,0.521c-0.276,0.311-0.591,0.643-0.939,0.994
		l-2.461,2.48l-0.593-0.588l9.386-9.459l0.504,0.5l-0.809,1.042l0.036,0.036c1.145-0.259,2.208,0.099,3.19,1.073
		c0.879,0.872,1.263,1.825,1.151,2.86c-0.111,1.035-0.714,2.103-1.807,3.206c-1.063,1.07-2.129,1.659-3.198,1.767
		C102.893,137.012,101.939,136.649,101.1,135.817z M101.612,135.278c0.666,0.662,1.428,0.926,2.284,0.794
		c0.857-0.132,1.727-0.645,2.61-1.535c1.898-1.913,2.157-3.555,0.775-4.926c-0.759-0.752-1.523-1.097-2.293-1.032
		c-0.769,0.065-1.622,0.568-2.558,1.511l-0.19,0.192c-1.01,1.019-1.56,1.916-1.65,2.689
		C100.501,133.744,100.84,134.513,101.612,135.278z"/>
	<path d="M113.872,148.251l4.237-4.271c0.63-0.635,0.966-1.221,1.007-1.759c0.043-0.537-0.192-1.059-0.704-1.566
		c-0.666-0.662-1.342-0.967-2.025-0.917c-0.686,0.05-1.417,0.469-2.197,1.255l-3.786,3.816l-0.605-0.601l4.416-4.451
		c1.09-1.098,1.132-2.146,0.125-3.146c-0.683-0.677-1.377-0.972-2.083-0.884c-0.706,0.088-1.493,0.569-2.36,1.444l-3.566,3.594
		l-0.593-0.588l6.461-6.512l0.491,0.487l-0.76,1.018l0.036,0.036c0.5-0.145,1.005-0.142,1.513,0.009
		c0.507,0.151,0.96,0.425,1.359,0.821c1.027,1.019,1.304,2.058,0.831,3.118l0.023,0.023c0.58-0.161,1.147-0.165,1.704-0.009
		c0.555,0.154,1.061,0.458,1.516,0.91c0.711,0.706,1.057,1.424,1.035,2.157c-0.021,0.731-0.441,1.511-1.262,2.338l-4.226,4.259
		L113.872,148.251z"/>
	<path d="M119.078,153.654c-0.946-0.939-1.395-1.962-1.346-3.071c0.05-1.108,0.595-2.188,1.637-3.238
		c1.03-1.039,2.111-1.616,3.243-1.734c1.131-0.117,2.13,0.254,2.996,1.114c0.767,0.761,1.107,1.629,1.02,2.604
		c-0.088,0.975-0.587,1.921-1.499,2.84l-0.476,0.479l-4.69-4.654c-0.88,0.903-1.348,1.793-1.406,2.67
		c-0.059,0.877,0.294,1.694,1.057,2.451c0.371,0.369,0.724,0.667,1.057,0.894c0.333,0.228,0.801,0.47,1.402,0.726l-0.535,0.539
		c-0.525-0.205-0.974-0.433-1.343-0.684C119.825,154.338,119.454,154.027,119.078,153.654z M125.086,147.252
		c-0.627-0.623-1.335-0.915-2.125-0.878c-0.789,0.037-1.603,0.413-2.439,1.128l4.026,3.994c0.749-0.754,1.17-1.507,1.265-2.258
		C125.907,148.489,125.665,147.826,125.086,147.252z"/>
	<path d="M127.841,162.111l4.19-4.223c0.649-0.655,0.984-1.268,1.004-1.839c0.019-0.571-0.26-1.144-0.839-1.719
		c-0.779-0.772-1.544-1.141-2.297-1.107c-0.752,0.035-1.565,0.494-2.44,1.376l-3.566,3.594l-0.593-0.588l6.461-6.512l0.504,0.5
		l-0.772,1.005l0.036,0.036c1.097-0.259,2.186,0.148,3.269,1.223c1.477,1.466,1.43,2.991-0.144,4.577l-4.226,4.26L127.841,162.111z"
		/>
	<path d="M132.661,166.085c0.375,0.372,0.734,0.666,1.077,0.879l-0.476,0.479c-0.383-0.189-0.762-0.47-1.137-0.842
		c-0.575-0.571-0.848-1.146-0.815-1.725c0.031-0.579,0.374-1.198,1.027-1.857l4.173-4.205l-0.965-0.957l0.345-0.347l1.232,0.687
		l1.761-1.176l0.306,0.303l-1.563,1.575l1.912,1.896l-0.512,0.516l-1.912-1.896l-4.089,4.121c-0.496,0.5-0.773,0.956-0.836,1.37
		C132.129,165.319,132.284,165.712,132.661,166.085z"/>
	<path d="M36.056,100.259l2.896-5.769c0.201-0.387,0.514-0.938,0.937-1.651l-0.036-0.036l-0.565,0.318l-1.131,0.602l-5.76,2.904
		l-0.588-0.583l4.599-8.36l0.635,0.63l-2.701,4.808c-0.684,1.176-1.206,2.021-1.566,2.537l0.036,0.036
		c1.163-0.701,1.951-1.152,2.364-1.353l5.282-2.64l0.539,0.534l-2.652,5.226c-0.644,1.224-1.085,2.019-1.322,2.386l0.036,0.036
		c0.29-0.228,1.14-0.763,2.549-1.608l4.702-2.752l0.599,0.594l-8.228,4.759L36.056,100.259z"/>
	<path d="M40.315,104.485l-0.593-0.588l6.461-6.512l0.593,0.588L40.315,104.485z M47.895,95.493c0.38-0.383,0.695-0.451,0.947-0.201
		c0.124,0.124,0.171,0.269,0.143,0.438c-0.029,0.169-0.135,0.346-0.317,0.53c-0.178,0.18-0.354,0.286-0.527,0.321
		c-0.173,0.034-0.32-0.009-0.444-0.133C47.444,96.199,47.51,95.88,47.895,95.493z"/>
	<path d="M44.62,107.948c0.375,0.372,0.734,0.666,1.077,0.879l-0.476,0.479c-0.383-0.189-0.762-0.47-1.137-0.842
		c-0.575-0.571-0.847-1.146-0.815-1.725c0.032-0.579,0.374-1.198,1.028-1.856l4.173-4.206l-0.965-0.957l0.345-0.347l1.231,0.687
		l1.762-1.177l0.306,0.303l-1.563,1.576l1.912,1.896l-0.511,0.515l-1.912-1.896l-4.089,4.122c-0.496,0.5-0.774,0.956-0.836,1.37
		C44.088,107.182,44.244,107.575,44.62,107.948z"/>
	<path d="M51.146,115.232l4.19-4.223c0.65-0.655,0.985-1.268,1.005-1.839c0.02-0.571-0.261-1.144-0.84-1.719
		c-0.778-0.772-1.543-1.141-2.296-1.107c-0.751,0.035-1.564,0.494-2.44,1.376l-3.566,3.594l-0.593-0.588l9.249-9.321l0.593,0.588
		l-2.942,2.965l-0.856,0.803l0.042,0.042c0.632-0.15,1.221-0.128,1.767,0.064c0.546,0.193,1.095,0.563,1.646,1.11
		c1.478,1.465,1.43,2.992-0.144,4.577l-4.226,4.259L51.146,115.232z"/>
	<path d="M60.983,124.991l0.872-1.179l-0.048-0.047c-0.743,0.095-1.374,0.057-1.892-0.112c-0.518-0.169-1.013-0.488-1.483-0.955
		c-0.64-0.634-0.974-1.292-1.005-1.972c-0.03-0.68,0.242-1.309,0.816-1.889c0.63-0.635,1.384-0.866,2.262-0.692
		c0.878,0.173,1.828,0.748,2.851,1.722l1.275,1.194l0.429-0.431c0.614-0.619,0.951-1.211,1.013-1.776
		c0.062-0.565-0.187-1.125-0.746-1.68c-0.604-0.599-1.395-1.05-2.375-1.357l0.29-0.734c1.048,0.373,1.921,0.907,2.62,1.601
		c0.715,0.709,1.064,1.424,1.05,2.147c-0.016,0.722-0.413,1.477-1.194,2.263l-4.297,4.331L60.983,124.991z M59.004,122.195
		c0.694,0.689,1.439,1.035,2.235,1.036c0.796,0.001,1.544-0.353,2.245-1.06l0.636-0.641l-1.186-1.082
		c-0.958-0.863-1.752-1.368-2.381-1.512s-1.197,0.039-1.704,0.55c-0.404,0.407-0.594,0.847-0.568,1.32
		C58.307,121.28,58.548,121.743,59.004,122.195z"/>
	<path d="M74.192,133.378c-0.772,0.779-1.661,1.11-2.663,0.995c-1.003-0.115-2-0.665-2.99-1.646
		c-0.99-0.983-1.649-1.941-1.975-2.875l1.343-1.354c0.214,0.584,0.491,1.152,0.834,1.706c0.342,0.554,0.707,1.023,1.095,1.407
		c0.566,0.563,1.092,0.87,1.575,0.922c0.484,0.052,0.906-0.104,1.267-0.467c0.325-0.328,0.477-0.728,0.455-1.202
		c-0.021-0.473-0.266-1.25-0.731-2.33c-0.479-1.116-0.675-2.044-0.59-2.784c0.085-0.741,0.416-1.402,0.995-1.985
		c0.725-0.731,1.555-1.048,2.49-0.953c0.935,0.096,1.841,0.578,2.715,1.445c0.839,0.833,1.491,1.844,1.958,3.036l-1.615,0.716
		c-0.454-1.101-0.986-1.954-1.598-2.56c-0.463-0.459-0.915-0.708-1.354-0.743c-0.44-0.037-0.825,0.111-1.153,0.443
		c-0.227,0.228-0.372,0.47-0.437,0.726c-0.063,0.258-0.058,0.566,0.02,0.928c0.076,0.362,0.283,0.944,0.621,1.746
		c0.378,0.906,0.602,1.624,0.671,2.152c0.07,0.529,0.029,1.008-0.12,1.438C74.855,132.57,74.585,132.983,74.192,133.378z"/>
	<path d="M76.856,138.72c0.343,0.341,0.741,0.628,1.191,0.86l-1.053,1.061c-0.223-0.086-0.48-0.229-0.771-0.426
		c-0.291-0.198-0.569-0.427-0.832-0.689c-1.334-1.323-1.304-2.688,0.091-4.094l3.543-3.57l-0.905-0.897l0.618-0.623l1.481,0.448
		l1.87-0.927l0.868,0.862l-1.462,1.474l1.888,1.873l-1.058,1.066l-1.888-1.873l-3.519,3.546c-0.337,0.339-0.5,0.674-0.49,1.005
		C76.438,138.145,76.581,138.447,76.856,138.72z"/>
	<path d="M82.346,146.188l0.634-1.202l-0.048-0.048c-0.721,0.086-1.313,0.042-1.782-0.133c-0.468-0.176-0.955-0.514-1.462-1.017
		c-0.651-0.646-0.985-1.326-1.003-2.041c-0.017-0.714,0.295-1.392,0.933-2.035c0.678-0.683,1.442-0.947,2.294-0.791
		s1.813,0.733,2.883,1.731l1.181,1.1l0.351-0.354c0.42-0.423,0.635-0.838,0.646-1.244c0.01-0.406-0.192-0.815-0.607-1.227
		c-0.34-0.337-0.715-0.61-1.126-0.819c-0.409-0.209-0.826-0.388-1.249-0.539l0.544-1.458c0.545,0.169,1.08,0.417,1.605,0.743
		c0.523,0.326,0.976,0.677,1.355,1.054c0.843,0.836,1.296,1.65,1.361,2.444c0.064,0.793-0.294,1.583-1.074,2.37l-4.429,4.463
		L82.346,146.188z M81.2,143.149c0.512,0.507,1.063,0.771,1.656,0.793c0.594,0.021,1.146-0.226,1.657-0.741l0.57-0.575l-0.886-0.808
		c-0.688-0.634-1.279-1.001-1.777-1.103s-0.949,0.051-1.354,0.458c-0.294,0.296-0.432,0.612-0.417,0.948
		C80.666,142.458,80.848,142.8,81.2,143.149z"/>
	<path d="M95.372,145.726c0.283,0.281,0.496,0.533,0.641,0.755l-1.439,1.175c-0.151-0.246-0.336-0.477-0.552-0.69
		c-0.563-0.559-1.202-0.827-1.915-0.806c-0.715,0.02-1.362,0.325-1.945,0.912l-3.436,3.462l-1.408-1.397l6.574-6.625l1.103,1.093
		l-0.974,1.353l0.071,0.071c0.612-0.177,1.21-0.206,1.793-0.087C94.467,145.059,94.964,145.321,95.372,145.726z"/>
</g>
<g>
	<path class="st0" d="M102.983,94.067c0.186-0.186,0.465-0.403,0.837-0.651c0.372-0.248,0.62-0.434,0.744-0.558
		c0.496-0.372,0.868-0.868,1.116-1.489c0.372-0.496,0.465-1.799,0.279-3.908s-0.217-3.473-0.093-4.094
		c-3.225,1.116-6.513,0.558-9.862-1.675c-0.992-0.992-1.985-2.419-2.977-4.28c-0.744-1.365-2.233-2.977-4.466-4.838
		c-0.248-0.248-0.248-0.496,0-0.744c0.496-0.496,1.116-0.682,1.861-0.558c0.744,0.124,1.178,0.248,1.303,0.372
		c0.868,0.372,1.83,1.21,2.884,2.512c1.054,1.303,1.892,2.202,2.512,2.698c2.977,2.481,6.016,2.667,9.118,0.558
		c0.248-0.868,0.651-1.613,1.209-2.233c0.558-0.62,1.085-1.054,1.582-1.303c0.496-0.248,1.365-0.62,2.605-1.116
		c-4.094-0.372-7.412-1.085-9.955-2.14c-2.543-1.054-4.559-2.388-6.047-4c-1.985-2.233-3.194-5.148-3.628-8.745
		s-0.155-6.885,0.837-9.862c0.744-1.861,1.799-3.535,3.163-5.024c-0.992-3.101-0.806-6.637,0.558-10.606
		c3.97,0.248,7.567,1.613,10.792,4.094c6.202-1.613,12.653-1.675,19.352-0.186c0.868-0.62,2.202-1.396,4-2.326
		c1.799-0.93,4.063-1.458,6.792-1.582c0.496,1.365,0.837,2.977,1.023,4.838c0.186,1.861,0.093,3.597-0.279,5.21
		c2.853,2.977,4.342,6.947,4.466,11.909c0,3.97-0.682,7.257-2.047,9.862c-1.365,2.605-3.784,4.776-7.257,6.513
		c-2.357,1.116-5.458,1.799-9.304,2.047c1.737,0.868,3.008,1.768,3.815,2.698c0.806,0.93,1.334,2.388,1.582,4.373v5.861
		c0,0,0.062,1.892,0.186,5.675c0.372,0.62,0.806,1.148,1.302,1.582c0.496,0.434,0.93,0.744,1.303,0.93
		c0.372,0.186,0.496,0.465,0.372,0.837c-0.124,0.372-0.62,0.558-1.489,0.558c-2.109,0-3.784-0.744-5.024-2.233
		c-0.372-0.62-0.558-1.365-0.558-2.233V81.88c0-0.992-0.248-1.706-0.744-2.14c-0.496-0.434-0.992-0.713-1.489-0.837v11.723
		c0,2.109,0.248,3.473,0.744,4.094c0.496,0.62,0.806,1.24,0.93,1.861c0.124,0.124,0.031,0.217-0.279,0.279
		c-0.31,0.062-0.837-0.031-1.582-0.279c-1.613-0.372-2.729-1.209-3.349-2.512s-0.93-2.698-0.93-4.187V78.344h-2.419v11.536
		c0,1.489-0.31,2.915-0.93,4.28c-0.868,1.737-2.481,2.667-4.838,2.791c-0.372-0.124-0.558-0.248-0.558-0.372
		c0.124-0.124,0.496-0.744,1.116-1.861c0.124-0.248,0.279-0.744,0.465-1.489c0.186-0.744,0.279-1.613,0.279-2.605V78.902
		c-0.496,0.124-0.961,0.403-1.396,0.837s-0.651,1.148-0.651,2.14v8.932c0,0.868-0.186,1.613-0.558,2.233
		c-1.116,1.489-2.791,2.233-5.024,2.233c-0.189,0-0.353-0.013-0.507-0.03l9.312,9.312c1.442,0.137,2.91,0.208,4.406,0.208
		c11.661,0,21.646-4.156,29.958-12.467c8.311-8.311,12.467-18.297,12.467-29.958s-4.156-21.646-12.467-29.958
		c-8.311-8.311-18.297-12.467-29.958-12.467s-21.646,4.156-29.958,12.467c-8.311,8.311-12.467,18.297-12.467,29.958
		c0,1.497,0.071,2.965,0.208,4.406l27.491,27.491C102.891,94.18,102.928,94.122,102.983,94.067z"/>
	<path class="st0" d="M8.624,0l61.352,61.352c0.23-12.721,4.865-23.622,13.933-32.69c9.304-9.304,20.53-13.956,33.679-13.956
		s24.376,4.652,33.679,13.956s13.956,20.53,13.956,33.679s-4.652,24.376-13.956,33.679c-9.068,9.068-19.968,13.704-32.69,13.933
		l60.368,60.368V0H8.624z"/>
</g>
<g>
</g>
<g>
</g>
<g>
</g>
<g>
</g>
<g>
</g>
<g>
</g>
</svg>
