<?xml version="1.0" encoding="utf-8"?>
<!-- Generator: Adobe Illustrator 17.0.0, SVG Export Plug-In . SVG Version: 6.00 Build 0)  -->
<!DOCTYPE svg PUBLIC "-//W3C//DTD SVG 1.1//EN" "http://www.w3.org/Graphics/SVG/1.1/DTD/svg11.dtd">
<svg version="1.1" id="Layer_1" xmlns="http://www.w3.org/2000/svg" xmlns:xlink="http://www.w3.org/1999/xlink" x="0px" y="0px"
	 width="342px" height="420.5px" viewBox="0 0 342 420.5" style="enable-background:new 0 0 342 420.5;" xml:space="preserve">
<style type="text/css">
	.st0{display:none;}
	.st1{display:inline;}
	.st2{opacity:0.9;stroke:#000000;stroke-width:8;stroke-miterlimit:10;enable-background:new    ;}
	.st3{stroke:#000000;stroke-width:8;stroke-miterlimit:10;}
	.st4{fill:#1D1D1B;}
</style>
<g id="Layer_1_1_" class="st0">
	<path class="st1" d="M231.09,229.811c-0.698-3.218-1.443-6.433-2.201-9.644c-2.274-9.631-4.667-19.216-6.286-28.666
		c-0.96-3.167-1.973-6.35-3.01-9.522c-1.037-3.172-2.095-6.33-3.171-9.472s-2.168-6.277-3.269-9.44C202,138,195,104,163.91,98.143
		c-1.876-0.135-2.932-0.224-2.932-0.224C151,100,142,106,136.109,114.085c-1.554,2.009-2.998,4.107-4.345,6.235
		c-1.347,2.127-2.597,4.283-3.763,6.404c-1.461,2.654-2.853,5.33-4.224,7.94c-1.925,3.447-3.856,6.965-5.777,10.561
		c-1.801,3.372-3.594,6.814-5.363,10.314s-3.522,7.057-5.288,10.643c-1.135,2.782-2.256,5.575-3.354,8.38
		c-1.099,2.805-2.174,5.621-3.241,8.435C89,210,81,241,89.811,271.244c0.74,3.051,1.628,6.056,2.667,8.999
		c6.238,17.653,17.954,33.049,35.386,42.341c2.656,1.263,5.376,2.381,8.142,3.344s5.576,1.771,8.412,2.414
		c2.513,0.502,5.127,0.91,7.831,1.261c2.705,0.345,5.501,0.633,8.391,0.862c8.575-0.7,16.298-1.958,23.231-3.716
		c3.467-0.879,6.736-1.883,9.805-3.006C226,307,236,264,231.09,229.811z M117.333,256l2,14.667
		C115.636,268.381,117.333,260.181,117.333,256z M148,216l3.333,78.667C133.461,273.104,148,240.363,148,216z M175.333,241.333
		c0.703,6.404-0.603,14.863-3.333,20.667L175.333,241.333z M174,278l16-65.333c0.023,5.835,4.802,11.818,5.368,18.05
		c0.646,7.116-0.347,12.633-2.568,19.116C190.287,257.165,184.422,279.846,174,278z M196.489,281.084
		c-3.585,5.879-7.111,19.79-15.822,17.582l22-40C202.667,268.402,201.654,272.612,196.489,281.084z"/>
</g>
<g id="Layer_2">
</g>
<g id="Layer_3">
	<g>
		<path class="st2" d="M174.924,243.791L172.471,259c2.074-4.408,3.324-10.348,3.497-15.756L174.924,243.791z"/>
		<path class="st2" d="M118.539,258.389L117.804,253c0,1.587-0.244,3.753-0.345,5.955L118.539,258.389z"/>
		<path class="st2" d="M148.471,213c0,9.675-2.29,20.671-3.936,31.764l5.167-2.708L148.471,213z"/>
		<path class="st3" d="M260.872,89.522l-63.168,33.107c5.585,10.458,9.608,22.368,14.068,33.111l65.746-34.458L260.872,89.522z"/>
		<path class="st2" d="M194.348,271.647l-13.211,24.019c0.475,0.12,0.932,0.185,1.378,0.213l6.734-3.53
			c3.346-4.08,5.518-10.671,7.71-14.266c2.492-4.087,4.011-7.183,4.923-10.385L194.348,271.647z"/>
		<path class="st2" d="M150.322,256.686l-7.375,3.865c-0.272,8.234,0.634,16.187,3.962,23.339l4.466-2.341L150.322,256.686z"/>
		<path class="st2" d="M220.064,178.978c1.037,3.172,2.05,6.355,3.01,9.522c0.775,4.523,1.73,9.078,2.761,13.653l107.038-56.1
			l-14.119-26.939l-101.009,52.94C218.525,174.358,219.306,176.66,220.064,178.978z"/>
		<path class="st2" d="M176.032,268.626l11.654-6.108c2.622-5.909,4.448-12.368,5.585-15.686c1.673-4.882,2.647-9.217,2.751-14.099
			l-12.849,6.734L176.032,268.626z"/>
		<path class="st2" d="M187.374,222.312l5.869-3.076c-1.37-3.243-2.76-6.427-2.773-9.569L187.374,222.312z"/>
		<path class="st2" d="M225.03,285.02c-1.572,3.854-3.391,7.571-5.481,11.095l22.584-11.837l-3.381-6.45L225.03,285.02z"/>
		<path class="st2" d="M232.461,251.672c-0.44,6.582-1.421,13.182-2.994,19.6l66.911-35.069l-7.414-14.145L232.461,251.672z"/>
		<path class="st2" d="M128.335,319.584c-4.059-2.164-7.796-4.671-11.238-7.448l-13.962,7.318l7.414,14.145l22.683-11.888
			C131.579,321.054,129.944,320.349,128.335,319.584z"/>
		<path class="st2" d="M152.72,326.603c-1.863-0.242-3.665-0.525-5.438-0.833l-18.576,9.736l3.381,6.45l27.851-14.597
			C157.468,327.147,155.053,326.901,152.72,326.603z"/>
		<path class="st2" d="M228.958,215.472c0.134,0.565,0.269,1.13,0.402,1.695c0.758,3.211,1.502,6.426,2.201,9.644
			c0.567,3.948,0.925,8.016,1.083,12.145l80.435-42.157l-10.45-19.939L228.958,215.472z"/>
		<path class="st3" d="M113.818,151.154c1.539-3.021,3.091-6.006,4.653-8.929c1.921-3.596,3.853-7.114,5.777-10.561
			c1.37-2.611,2.763-5.286,4.224-7.94c1.167-2.12,2.417-4.276,3.763-6.404c1.347-2.127,2.791-4.226,4.345-6.235
			C142.471,103,151.471,97,161.449,94.918c0,0,1.056,0.089,2.932,0.224c11.392,2.146,19.542,8.08,25.855,15.96l96.281-50.462
			l-25.068-47.829L17.724,140.55l25.068,47.829L113.818,151.154z"/>
		<path class="st3" d="M88.473,220.361c2.504-14.011,7.209-27.632,12.751-40.364c1.067-2.814,2.142-5.63,3.241-8.435
			c0.011-0.028,0.023-0.056,0.033-0.084l-88.746,46.513l16.646,31.76L88.473,220.361z"/>
		<path class="st3" d="M90.282,268.244c-2.656-9.117-3.776-18.303-3.734-27.427L18.791,276.33l14.119,26.939l58.538-30.68
			C91.026,271.152,90.636,269.704,90.282,268.244z"/>
		<path class="st2" d="M96.168,285.068L61.401,303.29l10.45,19.938l36.691-19.23C103.491,298.332,99.379,291.932,96.168,285.068z"/>
	</g>
</g>
<g>
	<path class="st4" d="M35.251,394.611c0,3.039-1.117,5.446-3.35,7.223s-5.201,2.664-8.902,2.664c-4.449,0-7.861-0.49-10.235-1.469
		v-2.541c2.623,1.113,5.968,1.669,10.036,1.669c2.988,0,5.358-0.685,7.109-2.055c1.751-1.369,2.627-3.166,2.627-5.392
		c0-1.377-0.291-2.519-0.872-3.424c-0.582-0.904-1.528-1.73-2.839-2.478c-1.312-0.747-3.237-1.552-5.777-2.415
		c-3.719-1.278-6.288-2.661-7.707-4.146c-1.42-1.485-2.129-3.466-2.129-5.939c0-2.723,1.066-4.943,3.2-6.661
		c2.133-1.719,4.877-2.577,8.23-2.577c3.42,0,6.632,0.646,9.637,1.941l-0.921,2.191c-3.022-1.261-5.911-1.893-8.666-1.893
		c-2.689,0-4.831,0.623-6.425,1.868s-2.391,2.938-2.391,5.08c0,1.345,0.245,2.449,0.734,3.312c0.49,0.864,1.291,1.641,2.403,2.329
		c1.112,0.688,3.021,1.515,5.728,2.478c2.839,0.979,4.972,1.93,6.4,2.852c1.428,0.921,2.469,1.967,3.125,3.138
		C34.923,391.536,35.251,392.952,35.251,394.611z"/>
	<path class="st4" d="M53.255,404.498c-3.935,0-7.002-1.212-9.202-3.636s-3.299-5.818-3.299-10.185
		c0-4.316,1.062-7.773,3.188-10.372c2.125-2.599,4.989-3.897,8.591-3.897c3.188,0,5.703,1.112,7.545,3.337s2.764,5.246,2.764,9.064
		v1.992H43.344c0.033,3.719,0.9,6.558,2.602,8.517s4.138,2.938,7.309,2.938c1.544,0,2.901-0.107,4.072-0.323
		c1.17-0.216,2.652-0.681,4.445-1.395v2.24c-1.528,0.665-2.938,1.117-4.233,1.357S54.815,404.498,53.255,404.498z M52.533,378.6
		c-2.606,0-4.698,0.859-6.275,2.577c-1.578,1.719-2.499,4.196-2.764,7.434h16.734c0-3.138-0.681-5.591-2.042-7.358
		C56.825,379.483,54.94,378.6,52.533,378.6z"/>
	<path class="st4" d="M81.246,404.498c-3.935,0-7.002-1.212-9.202-3.636s-3.299-5.818-3.299-10.185
		c0-4.316,1.062-7.773,3.188-10.372c2.125-2.599,4.989-3.897,8.591-3.897c3.188,0,5.703,1.112,7.545,3.337s2.764,5.246,2.764,9.064
		v1.992H71.334c0.033,3.719,0.9,6.558,2.602,8.517s4.138,2.938,7.309,2.938c1.544,0,2.901-0.107,4.072-0.323
		c1.17-0.216,2.652-0.681,4.445-1.395v2.24c-1.528,0.665-2.938,1.117-4.233,1.357S82.806,404.498,81.246,404.498z M80.523,378.6
		c-2.606,0-4.698,0.859-6.275,2.577c-1.578,1.719-2.499,4.196-2.764,7.434h16.734c0-3.138-0.681-5.591-2.042-7.358
		C84.815,379.483,82.93,378.6,80.523,378.6z"/>
	<path class="st4" d="M108.215,376.408c1.958,0,3.652,0.357,5.08,1.07c1.428,0.715,2.706,1.935,3.835,3.661h0.149
		c-0.1-2.092-0.149-4.142-0.149-6.151v-9.736h2.44V404h-1.619l-0.623-4.134h-0.199c-2.059,3.088-5.014,4.632-8.865,4.632
		c-3.735,0-6.591-1.162-8.566-3.486c-1.976-2.324-2.963-5.711-2.963-10.16c0-4.682,0.979-8.259,2.938-10.732
		C101.632,377.646,104.48,376.408,108.215,376.408z M108.215,378.649c-2.955,0-5.176,1.038-6.661,3.112
		c-1.486,2.076-2.229,5.089-2.229,9.04c0,7.67,2.979,11.505,8.94,11.505c3.054,0,5.295-0.888,6.724-2.664
		c1.428-1.776,2.142-4.707,2.142-8.791v-0.424c0-4.184-0.702-7.192-2.104-9.026S111.353,378.649,108.215,378.649z"/>
	<path class="st4" d="M144.174,373.494c-2.905,0-5.155,1.093-6.749,3.275s-2.391,5.226-2.391,9.127
		c0,8.117,3.046,12.177,9.139,12.177c2.556,0,5.653-0.639,9.289-1.917v6.475c-2.988,1.244-6.325,1.867-10.011,1.867
		c-5.296,0-9.347-1.606-12.152-4.818c-2.806-3.213-4.208-7.823-4.208-13.834c0-3.785,0.688-7.101,2.067-9.948
		c1.378-2.847,3.357-5.03,5.939-6.549c2.581-1.52,5.606-2.278,9.077-2.278c3.536,0,7.088,0.854,10.658,2.564l-2.49,6.275
		c-1.361-0.647-2.731-1.212-4.109-1.693C146.855,373.735,145.502,373.494,144.174,373.494z"/>
	<path class="st4" d="M178.29,404l-1.47-3.785h-0.199c-1.278,1.61-2.594,2.727-3.946,3.35c-1.354,0.622-3.117,0.934-5.292,0.934
		c-2.673,0-4.777-0.764-6.313-2.291c-1.536-1.527-2.304-3.702-2.304-6.524c0-2.955,1.033-5.134,3.101-6.537
		c2.066-1.402,5.183-2.179,9.351-2.328l4.831-0.149v-1.221c0-2.821-1.444-4.232-4.333-4.232c-2.225,0-4.84,0.672-7.844,2.017
		l-2.515-5.13c3.204-1.677,6.757-2.516,10.658-2.516c3.735,0,6.599,0.814,8.591,2.441s2.988,4.101,2.988,7.42V404H178.29z
		 M176.049,391.101l-2.938,0.1c-2.208,0.066-3.852,0.465-4.931,1.195c-1.08,0.73-1.619,1.843-1.619,3.337
		c0,2.142,1.229,3.213,3.686,3.213c1.759,0,3.167-0.507,4.221-1.52c1.054-1.013,1.581-2.357,1.581-4.034V391.101z"/>
	<path class="st4" d="M210.838,395.732c0,2.855-0.992,5.03-2.976,6.524c-1.984,1.494-4.952,2.241-8.903,2.241
		c-2.025,0-3.752-0.137-5.18-0.411c-1.428-0.273-2.764-0.676-4.009-1.208v-6.275c1.411,0.665,3.001,1.221,4.769,1.669
		c1.769,0.448,3.324,0.673,4.67,0.673c2.755,0,4.133-0.797,4.133-2.391c0-0.598-0.183-1.084-0.547-1.457
		c-0.366-0.374-0.996-0.797-1.893-1.271c-0.896-0.473-2.092-1.024-3.586-1.655c-2.143-0.896-3.715-1.727-4.72-2.49
		s-1.734-1.64-2.191-2.628c-0.457-0.987-0.685-2.204-0.685-3.647c0-2.474,0.959-4.387,2.876-5.74
		c1.918-1.354,4.636-2.029,8.155-2.029c3.354,0,6.616,0.73,9.787,2.191l-2.291,5.479c-1.395-0.598-2.698-1.088-3.91-1.47
		s-2.448-0.573-3.71-0.573c-2.241,0-3.362,0.606-3.362,1.818c0,0.681,0.361,1.27,1.084,1.768c0.722,0.498,2.303,1.237,4.744,2.217
		c2.174,0.88,3.768,1.702,4.781,2.465c1.012,0.765,1.759,1.645,2.24,2.641S210.838,394.354,210.838,395.732z"/>
	<path class="st4" d="M228.069,404.498c-8.666,0-12.999-4.756-12.999-14.27c0-4.73,1.179-8.346,3.536-10.845
		c2.357-2.498,5.735-3.747,10.136-3.747c3.22,0,6.108,0.631,8.666,1.893l-2.242,5.877c-1.195-0.481-2.308-0.876-3.336-1.184
		c-1.03-0.307-2.06-0.461-3.088-0.461c-3.952,0-5.928,2.807-5.928,8.418c0,5.445,1.976,8.168,5.928,8.168
		c1.46,0,2.813-0.195,4.059-0.586c1.245-0.39,2.49-1,3.735-1.83v6.5c-1.229,0.78-2.47,1.319-3.723,1.618
		C231.56,404.349,229.979,404.498,228.069,404.498z"/>
	<path class="st4" d="M260.667,404l-1.47-3.785h-0.199c-1.278,1.61-2.594,2.727-3.946,3.35c-1.354,0.622-3.117,0.934-5.292,0.934
		c-2.673,0-4.777-0.764-6.313-2.291c-1.536-1.527-2.304-3.702-2.304-6.524c0-2.955,1.033-5.134,3.101-6.537
		c2.066-1.402,5.184-2.179,9.351-2.328l4.831-0.149v-1.221c0-2.821-1.444-4.232-4.333-4.232c-2.225,0-4.84,0.672-7.845,2.017
		l-2.515-5.13c3.204-1.677,6.757-2.516,10.658-2.516c3.735,0,6.599,0.814,8.591,2.441s2.988,4.101,2.988,7.42V404H260.667z
		 M258.426,391.101l-2.938,0.1c-2.208,0.066-3.852,0.465-4.931,1.195s-1.619,1.843-1.619,3.337c0,2.142,1.229,3.213,3.686,3.213
		c1.76,0,3.167-0.507,4.222-1.52c1.054-1.013,1.581-2.357,1.581-4.034V391.101z"/>
	<path class="st4" d="M282.606,404.498c-3.271,0-5.84-1.27-7.707-3.811c-1.868-2.539-2.802-6.059-2.802-10.559
		c0-4.564,0.95-8.121,2.852-10.67c1.9-2.549,4.52-3.822,7.856-3.822c3.503,0,6.176,1.361,8.019,4.084h0.249
		c-0.382-2.075-0.573-3.927-0.573-5.554v-8.915h7.621V404h-5.828l-1.469-3.611H290.5
		C288.773,403.129,286.143,404.498,282.606,404.498z M285.271,398.447c1.941,0,3.365-0.564,4.271-1.693
		c0.904-1.129,1.398-3.047,1.481-5.753v-0.821c0-2.988-0.461-5.131-1.382-6.426c-0.922-1.295-2.42-1.941-4.495-1.941
		c-1.693,0-3.01,0.718-3.947,2.153c-0.938,1.437-1.406,3.524-1.406,6.263c0,2.74,0.473,4.794,1.419,6.164
		C282.158,397.762,283.511,398.447,285.271,398.447z"/>
	<path class="st4" d="M318.665,404.498c-4.482,0-7.985-1.236-10.509-3.711c-2.523-2.473-3.785-5.977-3.785-10.508
		c0-4.665,1.166-8.271,3.499-10.82c2.332-2.549,5.557-3.822,9.675-3.822c3.934,0,6.997,1.12,9.188,3.361s3.287,5.338,3.287,9.289
		v3.686h-17.954c0.082,2.158,0.722,3.843,1.917,5.055s2.872,1.818,5.03,1.818c1.677,0,3.262-0.175,4.756-0.523
		s3.055-0.904,4.682-1.668v5.877c-1.328,0.664-2.747,1.157-4.258,1.481C322.683,404.336,320.84,404.498,318.665,404.498z
		 M317.594,381.04c-1.61,0-2.872,0.511-3.785,1.531c-0.913,1.021-1.436,2.47-1.568,4.346h10.658
		c-0.033-1.876-0.523-3.324-1.469-4.346C320.482,381.551,319.204,381.04,317.594,381.04z"/>
</g>
</svg>
